<mxfile host="Electron" agent="Mozilla/5.0 (X11; Linux x86_64) AppleWebKit/537.36 (KHTML, like Gecko) draw.io/26.0.4 Chrome/128.0.6613.186 Electron/32.2.5 Safari/537.36" version="26.0.4">
  <diagram name="Page-1" id="y0vTa9De9oEKycRS4eAW">
    <mxGraphModel dx="1058" dy="668" grid="1" gridSize="10" guides="1" tooltips="1" connect="1" arrows="1" fold="1" page="1" pageScale="1" pageWidth="850" pageHeight="1100" math="0" shadow="0">
      <root>
        <mxCell id="0" />
        <mxCell id="1" parent="0" />
        <mxCell id="R_dcTgySiJL1P9pG5Nos-1" value="S&amp;amp;C Web App Instance" style="rounded=0;whiteSpace=wrap;html=1;" parent="1" vertex="1">
          <mxGeometry x="120" y="40" width="120" height="60" as="geometry" />
        </mxCell>
        <mxCell id="R_dcTgySiJL1P9pG5Nos-2" value="AWS Server&lt;div&gt;&lt;br&gt;&lt;/div&gt;" style="shape=module;align=left;spacingLeft=20;align=center;verticalAlign=top;whiteSpace=wrap;html=1;" parent="1" vertex="1">
          <mxGeometry x="320" y="40" width="120" height="60" as="geometry" />
        </mxCell>
        <mxCell id="R_dcTgySiJL1P9pG5Nos-4" value="Complaint Manager" style="shape=module;align=left;spacingLeft=20;align=center;verticalAlign=top;whiteSpace=wrap;html=1;" parent="1" vertex="1">
          <mxGeometry x="720" y="40" width="120" height="60" as="geometry" />
        </mxCell>
        <mxCell id="R_dcTgySiJL1P9pG5Nos-6" value="" style="endArrow=none;dashed=1;html=1;rounded=0;" parent="1" edge="1">
          <mxGeometry width="50" height="50" relative="1" as="geometry">
            <mxPoint x="180" y="360" as="sourcePoint" />
            <mxPoint x="179.5" y="100" as="targetPoint" />
          </mxGeometry>
        </mxCell>
        <mxCell id="R_dcTgySiJL1P9pG5Nos-7" value="" style="endArrow=none;dashed=1;html=1;rounded=0;" parent="1" edge="1">
          <mxGeometry width="50" height="50" relative="1" as="geometry">
            <mxPoint x="380" y="360" as="sourcePoint" />
            <mxPoint x="379.5" y="100" as="targetPoint" />
          </mxGeometry>
        </mxCell>
        <mxCell id="R_dcTgySiJL1P9pG5Nos-9" value="" style="endArrow=none;dashed=1;html=1;rounded=0;" parent="1" edge="1" source="yOJc_dGgryi1LDqPYUcy-153">
          <mxGeometry width="50" height="50" relative="1" as="geometry">
            <mxPoint x="780" y="380" as="sourcePoint" />
            <mxPoint x="779.75" y="100" as="targetPoint" />
          </mxGeometry>
        </mxCell>
        <mxCell id="R_dcTgySiJL1P9pG5Nos-17" value="" style="rounded=0;whiteSpace=wrap;html=1;rotation=0;" parent="1" vertex="1">
          <mxGeometry x="370" y="120" width="20" height="60" as="geometry" />
        </mxCell>
        <mxCell id="R_dcTgySiJL1P9pG5Nos-20" value="request(advertisement)" style="html=1;verticalAlign=bottom;endArrow=block;curved=0;rounded=0;" parent="1" edge="1">
          <mxGeometry x="0.0018" width="80" relative="1" as="geometry">
            <mxPoint x="180" y="120" as="sourcePoint" />
            <mxPoint x="370" y="120" as="targetPoint" />
            <mxPoint as="offset" />
          </mxGeometry>
        </mxCell>
        <mxCell id="yOJc_dGgryi1LDqPYUcy-15" value="Advertisement Manager" style="shape=module;align=left;spacingLeft=20;align=center;verticalAlign=top;whiteSpace=wrap;html=1;" parent="1" vertex="1">
          <mxGeometry x="520" y="40" width="120" height="60" as="geometry" />
        </mxCell>
        <mxCell id="yOJc_dGgryi1LDqPYUcy-17" value="" style="endArrow=none;dashed=1;html=1;rounded=0;" parent="1" edge="1">
          <mxGeometry width="50" height="50" relative="1" as="geometry">
            <mxPoint x="580" y="360" as="sourcePoint" />
            <mxPoint x="579.6700000000001" y="100" as="targetPoint" />
          </mxGeometry>
        </mxCell>
        <mxCell id="yOJc_dGgryi1LDqPYUcy-57" value="request(advertisement)" style="html=1;verticalAlign=bottom;endArrow=block;curved=0;rounded=0;" parent="1" edge="1">
          <mxGeometry x="0.0017" width="80" relative="1" as="geometry">
            <mxPoint x="390" y="130" as="sourcePoint" />
            <mxPoint x="570" y="130" as="targetPoint" />
            <mxPoint as="offset" />
          </mxGeometry>
        </mxCell>
        <mxCell id="yOJc_dGgryi1LDqPYUcy-129" value="" style="rounded=0;whiteSpace=wrap;html=1;rotation=0;" parent="1" vertex="1">
          <mxGeometry x="570" y="130" width="20" height="40" as="geometry" />
        </mxCell>
        <mxCell id="yOJc_dGgryi1LDqPYUcy-131" value="request(advertisement)" style="html=1;verticalAlign=bottom;endArrow=block;curved=0;rounded=0;entryX=0;entryY=0;entryDx=0;entryDy=0;" parent="1" edge="1" target="VtI5dOL42TcAz5SdqLyj-14">
          <mxGeometry x="0.0017" width="80" relative="1" as="geometry">
            <mxPoint x="590" y="140" as="sourcePoint" />
            <mxPoint x="770" y="140" as="targetPoint" />
            <mxPoint as="offset" />
          </mxGeometry>
        </mxCell>
        <mxCell id="yOJc_dGgryi1LDqPYUcy-132" value="return(advertisement)" style="html=1;verticalAlign=bottom;endArrow=open;dashed=1;endSize=8;curved=0;rounded=0;exitX=0;exitY=1;exitDx=0;exitDy=0;" parent="1" edge="1" source="VtI5dOL42TcAz5SdqLyj-14">
          <mxGeometry relative="1" as="geometry">
            <mxPoint x="770" y="160" as="sourcePoint" />
            <mxPoint x="590" y="160" as="targetPoint" />
          </mxGeometry>
        </mxCell>
        <mxCell id="yOJc_dGgryi1LDqPYUcy-133" value="return(advertisement)" style="html=1;verticalAlign=bottom;endArrow=open;dashed=1;endSize=8;curved=0;rounded=0;" parent="1" edge="1">
          <mxGeometry relative="1" as="geometry">
            <mxPoint x="570" y="170" as="sourcePoint" />
            <mxPoint x="390" y="170" as="targetPoint" />
          </mxGeometry>
        </mxCell>
        <mxCell id="yOJc_dGgryi1LDqPYUcy-134" value="return(advertisement)" style="html=1;verticalAlign=bottom;endArrow=open;dashed=1;endSize=8;curved=0;rounded=0;" parent="1" edge="1">
          <mxGeometry relative="1" as="geometry">
            <mxPoint x="370" y="180" as="sourcePoint" />
            <mxPoint x="180" y="180" as="targetPoint" />
          </mxGeometry>
        </mxCell>
        <mxCell id="yOJc_dGgryi1LDqPYUcy-150" value="" style="rounded=0;whiteSpace=wrap;html=1;rotation=0;" parent="1" vertex="1">
          <mxGeometry x="370" y="200" width="20" height="130" as="geometry" />
        </mxCell>
        <mxCell id="yOJc_dGgryi1LDqPYUcy-151" value="post(complaint)" style="html=1;verticalAlign=bottom;endArrow=block;curved=0;rounded=0;" parent="1" edge="1">
          <mxGeometry x="0.0018" width="80" relative="1" as="geometry">
            <mxPoint x="180" y="200" as="sourcePoint" />
            <mxPoint x="370" y="200" as="targetPoint" />
            <mxPoint as="offset" />
          </mxGeometry>
        </mxCell>
        <mxCell id="yOJc_dGgryi1LDqPYUcy-152" value="post(complaint)" style="html=1;verticalAlign=bottom;endArrow=block;curved=0;rounded=0;" parent="1" edge="1">
          <mxGeometry x="0.0017" width="80" relative="1" as="geometry">
            <mxPoint x="390" y="210" as="sourcePoint" />
            <mxPoint x="770" y="210" as="targetPoint" />
            <mxPoint as="offset" />
          </mxGeometry>
        </mxCell>
        <mxCell id="yOJc_dGgryi1LDqPYUcy-155" value="insert(complaint)" style="html=1;verticalAlign=bottom;endArrow=block;curved=0;rounded=0;" parent="1" edge="1">
          <mxGeometry x="0.0017" width="80" relative="1" as="geometry">
            <mxPoint x="790" y="220" as="sourcePoint" />
            <mxPoint x="970" y="220" as="targetPoint" />
            <mxPoint as="offset" />
          </mxGeometry>
        </mxCell>
        <mxCell id="yOJc_dGgryi1LDqPYUcy-156" value="return(error)" style="html=1;verticalAlign=bottom;endArrow=open;dashed=1;endSize=8;curved=0;rounded=0;" parent="1" edge="1">
          <mxGeometry relative="1" as="geometry">
            <mxPoint x="970" y="260" as="sourcePoint" />
            <mxPoint x="790" y="260" as="targetPoint" />
          </mxGeometry>
        </mxCell>
        <mxCell id="yOJc_dGgryi1LDqPYUcy-158" value="return(errorMessage)" style="html=1;verticalAlign=bottom;endArrow=open;dashed=1;endSize=8;curved=0;rounded=0;" parent="1" edge="1">
          <mxGeometry relative="1" as="geometry">
            <mxPoint x="370" y="280" as="sourcePoint" />
            <mxPoint x="180" y="280" as="targetPoint" />
          </mxGeometry>
        </mxCell>
        <mxCell id="yOJc_dGgryi1LDqPYUcy-159" value="return(confirmation)" style="html=1;verticalAlign=bottom;endArrow=open;dashed=1;endSize=8;curved=0;rounded=0;" parent="1" edge="1">
          <mxGeometry relative="1" as="geometry">
            <mxPoint x="970" y="310.0000000000001" as="sourcePoint" />
            <mxPoint x="790" y="310.0000000000001" as="targetPoint" />
          </mxGeometry>
        </mxCell>
        <mxCell id="yOJc_dGgryi1LDqPYUcy-161" value="return(confirmation)" style="html=1;verticalAlign=bottom;endArrow=open;dashed=1;endSize=8;curved=0;rounded=0;" parent="1" edge="1">
          <mxGeometry relative="1" as="geometry">
            <mxPoint x="370" y="330" as="sourcePoint" />
            <mxPoint x="180" y="330" as="targetPoint" />
          </mxGeometry>
        </mxCell>
        <mxCell id="yOJc_dGgryi1LDqPYUcy-165" value="&lt;b&gt;interaction&amp;nbsp;&lt;/b&gt;[UC14] Submit Complaint" style="shape=umlFrame;whiteSpace=wrap;html=1;pointerEvents=0;width=220;height=20;" parent="1" vertex="1">
          <mxGeometry x="100" y="10" width="960" height="370" as="geometry" />
        </mxCell>
        <mxCell id="VtI5dOL42TcAz5SdqLyj-6" value="return(error)" style="html=1;verticalAlign=bottom;endArrow=open;dashed=1;endSize=8;curved=0;rounded=0;exitX=-0.15;exitY=0.552;exitDx=0;exitDy=0;exitPerimeter=0;" edge="1" parent="1" source="yOJc_dGgryi1LDqPYUcy-153">
          <mxGeometry relative="1" as="geometry">
            <mxPoint x="570" y="270" as="sourcePoint" />
            <mxPoint x="390" y="270" as="targetPoint" />
          </mxGeometry>
        </mxCell>
        <mxCell id="VtI5dOL42TcAz5SdqLyj-7" value="return(confirmation)" style="html=1;verticalAlign=bottom;endArrow=open;dashed=1;endSize=8;curved=0;rounded=0;" edge="1" parent="1">
          <mxGeometry relative="1" as="geometry">
            <mxPoint x="770" y="320" as="sourcePoint" />
            <mxPoint x="390" y="320" as="targetPoint" />
          </mxGeometry>
        </mxCell>
        <mxCell id="VtI5dOL42TcAz5SdqLyj-11" value="Database" style="shape=module;align=left;spacingLeft=20;align=center;verticalAlign=top;whiteSpace=wrap;html=1;" vertex="1" parent="1">
          <mxGeometry x="920" y="40" width="120" height="60" as="geometry" />
        </mxCell>
        <mxCell id="VtI5dOL42TcAz5SdqLyj-12" value="" style="endArrow=none;dashed=1;html=1;rounded=0;" edge="1" parent="1" source="VtI5dOL42TcAz5SdqLyj-14">
          <mxGeometry width="50" height="50" relative="1" as="geometry">
            <mxPoint x="980" y="590" as="sourcePoint" />
            <mxPoint x="979.75" y="100" as="targetPoint" />
          </mxGeometry>
        </mxCell>
        <mxCell id="VtI5dOL42TcAz5SdqLyj-13" value="" style="endArrow=none;dashed=1;html=1;rounded=0;" edge="1" parent="1" target="VtI5dOL42TcAz5SdqLyj-14">
          <mxGeometry width="50" height="50" relative="1" as="geometry">
            <mxPoint x="980" y="360" as="sourcePoint" />
            <mxPoint x="979.75" y="100" as="targetPoint" />
          </mxGeometry>
        </mxCell>
        <mxCell id="VtI5dOL42TcAz5SdqLyj-14" value="" style="rounded=0;whiteSpace=wrap;html=1;rotation=0;" vertex="1" parent="1">
          <mxGeometry x="970" y="140" width="20" height="20" as="geometry" />
        </mxCell>
        <mxCell id="VtI5dOL42TcAz5SdqLyj-15" value="" style="rounded=0;whiteSpace=wrap;html=1;rotation=0;" vertex="1" parent="1">
          <mxGeometry x="970" y="220" width="20" height="90" as="geometry" />
        </mxCell>
        <mxCell id="VtI5dOL42TcAz5SdqLyj-16" value="" style="endArrow=none;dashed=1;html=1;rounded=0;" edge="1" parent="1" target="yOJc_dGgryi1LDqPYUcy-153">
          <mxGeometry width="50" height="50" relative="1" as="geometry">
            <mxPoint x="780" y="360" as="sourcePoint" />
            <mxPoint x="779.75" y="100" as="targetPoint" />
          </mxGeometry>
        </mxCell>
        <mxCell id="yOJc_dGgryi1LDqPYUcy-153" value="" style="rounded=0;whiteSpace=wrap;html=1;rotation=0;" parent="1" vertex="1">
          <mxGeometry x="770" y="210" width="20" height="110" as="geometry" />
        </mxCell>
        <mxCell id="VtI5dOL42TcAz5SdqLyj-17" value="ALT" style="shape=umlFrame;whiteSpace=wrap;html=1;pointerEvents=0;" vertex="1" parent="1">
          <mxGeometry x="110" y="240" width="890" height="50" as="geometry" />
        </mxCell>
        <mxCell id="VtI5dOL42TcAz5SdqLyj-18" value="IF NOT" style="shape=umlFrame;whiteSpace=wrap;html=1;pointerEvents=0;" vertex="1" parent="1">
          <mxGeometry x="110" y="290" width="890" height="50" as="geometry" />
        </mxCell>
      </root>
    </mxGraphModel>
  </diagram>
</mxfile>
